<svg xmlns="http://www.w3.org/2000/svg" width="1em" height="1em" viewBox="0 0 64 65" fill="none">
  <path opacity="0.2" d="M13.625 51.0693C11.325 48.7693 12.85 43.9443 11.675 41.1193C10.5 38.2943 6 35.8193 6 32.6943C6 29.5693 10.45 27.1943 11.675 24.2693C12.9 21.3443 11.325 16.6193 13.625 14.3193C15.925 12.0193 20.75 13.5443 23.575 12.3693C26.4 11.1943 28.875 6.69434 32 6.69434C35.125 6.69434 37.5 11.1443 40.425 12.3693C43.35 13.5943 48.075 12.0193 50.375 14.3193C52.675 16.6193 51.15 21.4443 52.325 24.2693C53.5 27.0943 58 29.5693 58 32.6943C58 35.8193 53.55 38.1943 52.325 41.1193C51.1 44.0443 52.675 48.7693 50.375 51.0693C48.075 53.3693 43.25 51.8443 40.425 53.0193C37.6 54.1943 35.125 58.6943 32 58.6943C28.875 58.6943 26.5 54.2443 23.575 53.0193C20.65 51.7943 15.925 53.3693 13.625 51.0693Z" fill="currentColor"/>
  <path d="M43 26.6943L28.325 40.6943L21 33.6943M13.625 51.0693C11.325 48.7693 12.85 43.9443 11.675 41.1193C10.5 38.2943 6 35.8193 6 32.6943C6 29.5693 10.45 27.1943 11.675 24.2693C12.9 21.3443 11.325 16.6193 13.625 14.3193C15.925 12.0193 20.75 13.5443 23.575 12.3693C26.4 11.1943 28.875 6.69434 32 6.69434C35.125 6.69434 37.5 11.1443 40.425 12.3693C43.35 13.5943 48.075 12.0193 50.375 14.3193C52.675 16.6193 51.15 21.4443 52.325 24.2693C53.5 27.0943 58 29.5693 58 32.6943C58 35.8193 53.55 38.1943 52.325 41.1193C51.1 44.0443 52.675 48.7693 50.375 51.0693C48.075 53.3693 43.25 51.8443 40.425 53.0193C37.6 54.1943 35.125 58.6943 32 58.6943C28.875 58.6943 26.5 54.2443 23.575 53.0193C20.65 51.7943 15.925 53.3693 13.625 51.0693Z" stroke="currentColor" stroke-width="2" stroke-linecap="round" stroke-linejoin="round"/>
</svg>
