<svg width="1em" height="1em" viewBox="0 0 28 28" fill="none" xmlns="http://www.w3.org/2000/svg">
<g clip-path="url(#clip0_8329_34566)">
<path opacity="0.2" d="M20.1248 4.375H13.9998L8.62952 11.375L13.9998 24.5L26.2498 11.375L20.1248 4.375Z" fill="currentColor" fill-opacity="0.9"/>
<path d="M7.87488 4.375H20.1249L26.2499 11.375L13.9999 24.5L1.74988 11.375L7.87488 4.375Z" stroke="currentColor" stroke-opacity="0.9" stroke-width="2" stroke-linecap="round" stroke-linejoin="round"/>
<path fill-rule="evenodd" clip-rule="evenodd" d="M14.7933 3.76631C14.604 3.51962 14.3108 3.375 13.9999 3.375C13.689 3.375 13.3957 3.51962 13.2065 3.76631L8.13636 10.375H1.74988C1.19759 10.375 0.749878 10.8227 0.749878 11.375C0.749878 11.9273 1.19759 12.375 1.74988 12.375H7.95826L13.0744 24.8787C13.2281 25.2545 13.5938 25.5 13.9999 25.5C14.4059 25.5 14.7716 25.2545 14.9254 24.8787L20.0415 12.375H26.2499C26.8022 12.375 27.2499 11.9273 27.2499 11.375C27.2499 10.8227 26.8022 10.375 26.2499 10.375H19.8634L14.7933 3.76631ZM17.3426 10.375L13.9999 6.01787L10.6571 10.375H17.3426ZM10.1192 12.375L13.9999 21.8593L17.8806 12.375H10.1192Z" fill="currentColor" fill-opacity="0.9"/>
</g>
<defs>
<clipPath id="clip0_8329_34566">
<rect width="28" height="28" fill="white"/>
</clipPath>
</defs>
</svg>
