<svg width="28" height="28" viewBox="0 0 28 28" fill="none" xmlns="http://www.w3.org/2000/svg">
<path opacity="0.2" d="M15.75 23.625V4.375C15.75 4.14294 15.6578 3.92038 15.4937 3.75628C15.3296 3.59219 15.1071 3.5 14.875 3.5H4.375C4.14294 3.5 3.92038 3.59219 3.75628 3.75628C3.59219 3.92038 3.5 4.14294 3.5 4.375V23.625" fill="currentColor" fill-opacity="0.9"/>
<path d="M1.75 23.625H26.25M15.75 23.625V4.375C15.75 4.14294 15.6578 3.92038 15.4937 3.75628C15.3296 3.59219 15.1071 3.5 14.875 3.5H4.375C4.14294 3.5 3.92038 3.59219 3.75628 3.75628C3.59219 3.92038 3.5 4.14294 3.5 4.375V23.625M24.5 23.625V11.375C24.5 11.1429 24.4078 10.9204 24.2437 10.7563C24.0796 10.5922 23.8571 10.5 23.625 10.5H15.75M7 7.875H10.5M8.75 14.875H12.25M7 19.25H10.5M19.25 19.25H21M19.25 14.875H21" stroke="currentColor" stroke-opacity="0.9" stroke-width="2" stroke-linecap="round" stroke-linejoin="round"/>
</svg>
