<svg width="1em" height="1em" viewBox="0 0 29 28" fill="none" xmlns="http://www.w3.org/2000/svg">
<path opacity="0.2" fill-rule="evenodd" clip-rule="evenodd" d="M9.95825 23.625V7.875H4.70825C4.47619 7.875 4.25363 7.96719 4.08953 8.13128C3.92544 8.29538 3.83325 8.51794 3.83325 8.75V22.75C3.83325 22.9821 3.92544 23.2046 4.08953 23.3687C4.25363 23.5328 4.47619 23.625 4.70825 23.625H9.95825ZM18.7083 23.625V7.875H23.9583C24.1903 7.875 24.4129 7.96719 24.577 8.13128C24.7411 8.29538 24.8333 8.51794 24.8333 8.75V22.75C24.8333 22.9821 24.7411 23.2046 24.577 23.3687C24.4129 23.5328 24.1903 23.625 23.9583 23.625H18.7083Z" fill="currentColor" fill-opacity="0.9"/>
<path fill-rule="evenodd" clip-rule="evenodd" d="M11.7083 3.375C10.9789 3.375 10.2794 3.66473 9.76371 4.18046C9.24798 4.69618 8.95825 5.39565 8.95825 6.125V6.875H4.70825C3.67272 6.875 2.83325 7.71447 2.83325 8.75V22.75C2.83325 23.7855 3.67272 24.625 4.70825 24.625H9.95825H18.7083H23.9583C24.9938 24.625 25.8333 23.7855 25.8333 22.75V8.75C25.8333 7.71447 24.9938 6.875 23.9583 6.875H19.7083V6.125C19.7083 5.39565 19.4185 4.69618 18.9028 4.18046C18.3871 3.66473 17.6876 3.375 16.9583 3.375H11.7083ZM17.7083 6.875V6.125C17.7083 5.92609 17.6292 5.73532 17.4886 5.59467C17.3479 5.45402 17.1572 5.375 16.9583 5.375H11.7083C11.5093 5.375 11.3186 5.45402 11.1779 5.59467C11.0373 5.73532 10.9583 5.92609 10.9583 6.125V6.875H17.7083ZM10.9583 8.875H17.7083V22.625H10.9583V8.875ZM8.95825 8.875H4.83325V22.625H8.95825V8.875ZM19.7083 22.625V8.875H23.8333V22.625H19.7083Z" fill="currentColor" fill-opacity="0.9"/>
</svg>
